# xmcd
#
# Track frame offsets:
#	150
#	19045
#	30692
#	49640
#	61672
#	82885
#	94897
#	108980
#	121332
#	132775
#	148777
#	161830
#	172332
#	189617
#	203155
#	213877
#	226822
#	239437
#
# Disc length: 3350 seconds
#
# Revision: 0
# Processed by: cddbd v1.5.2PL0 Copyright (c) Steve Scherf et al.
# Submitted via: audiograbber 1.83.01
#
DISCID=f40d1412
DTITLE=Various Artist - The Very Best Of Country Gold  Disc One
DYEAR=2003
DGENRE=Country
TTITLE0=Kenny Rogers Duet With Dolly Parton - Islands In The Stream
TTITLE1=Johnny Cash - Ring Of Fire (Album Version)
TTITLE2=LeAnn Rimes - How Do I Live
TTITLE3=Tammy Wynette - Stand By Your Man (Album Version)
TTITLE4=Eva Cassidy - Fields Of Gold
TTITLE5=Dolly Parton - Jolene
TTITLE6=Elvis Costello - Good Year For The Roses
TTITLE7=Nilsson - Everybody's 'Talkin'
TTITLE8=Pastsy Cline - Walking After Midnight
TTITLE9=Willie Nelson - Always On My Mind
TTITLE10=Lynn Anderson - Rose Graden (Album Version)
TTITLE11=Jim Reeves - He'll Have To Go
TTITLE12=Don McLean - Crying
TTITLE13=Kenny Rogers and The Fist Edition - Ruby Don't Take Your Love To Town
TTITLE14=The Everly Brothers - Bye Bye Love
TTITLE15=Ray Stevens - Misty
TTITLE16=Billie Jo Spears - What I've Got In Mind
TTITLE17=Charlie Rich - The Most Beautiful Girl
EXTD=
EXTT0=
EXTT1=
EXTT2=
EXTT3=
EXTT4=
EXTT5=
EXTT6=
EXTT7=
EXTT8=
EXTT9=
EXTT10=
EXTT11=
EXTT12=
EXTT13=
EXTT14=
EXTT15=
EXTT16=
EXTT17=
PLAYORDER=
